<?xml version="1.0" encoding="UTF-8"?>
<svg id="Layer_1" data-name="Layer 1" xmlns="http://www.w3.org/2000/svg" xmlns:xlink="http://www.w3.org/1999/xlink" viewBox="0 0 367 123.6">
  <defs>
    <style>
      .cls-1 {
        fill: #231f20;
      }

      .cls-1, .cls-2, .cls-3, .cls-4 {
        stroke-width: 0px;
      }

      .cls-2 {
        fill: #cd1543;
      }

      .cls-3 {
        fill: url(#Final_Tan_Gradient);
      }

      .cls-4 {
        fill: #fff;
      }
    </style>
    <radialGradient id="Final_Tan_Gradient" data-name="Final Tan Gradient" cx="180.14" cy="-6.92" fx="180.14" fy="-6.92" r="41.82" gradientTransform="translate(-182.13 70.31) scale(1.23)" gradientUnits="userSpaceOnUse">
      <stop offset=".25" stop-color="#fff"/>
      <stop offset=".84" stop-color="#d0b38d"/>
    </radialGradient>
  </defs>
  <g>
    <path class="cls-2" d="M127.19,47.09c4.29,1.54,2.47,6.16,1.49,9.41l-6.22,20.88-7.65-24.7c-.77-2.51-1.15-4.33-.82-5.76h-7.76v.17c3.03,1.6,1.93,5.31.88,8.79l-6.44,21.68-8.19-26.52c-.33-1.09-.88-2.85-.66-4.11h-8.03v.17c2.75,1.94,3.58,5.65,4.57,8.79l6.49,21.05c1.81,5.88,2.31,5.48,7.31,9.24l8.58-28.81,6.05,19.62c1.82,5.87,2.21,5.59,7.26,9.18l11.6-39.24h-8.47v.17Z"/>
    <path class="cls-2" d="M137.53,47.09c2.81,1.09,2.42,5.25,2.42,7.87v21.5c0,2.56.33,6.79-2.42,7.82v.17h10.45v-.17c-2.75-1.09-2.42-5.25-2.42-7.82v-21.5c0-2.57-.33-6.79,2.42-7.87v-.17h-10.45v.17Z"/>
    <path class="cls-2" d="M157.6,55.31c0-3.93,3.96-5.19,7.1-5.19s6.49,1.31,8.64,3.59v-6.45c-2.64-.86-5.45-1.26-8.2-1.26-6.71,0-13.8,2.74-13.8,9.93,0,12.09,18.92,10.5,18.92,19.39,0,3.99-4.73,5.93-7.86,5.93-4.29,0-8.8-1.82-12.05-4.73l1.6,7.13c3.14,1.2,6.49,1.71,9.84,1.71,8.58,0,14.74-5.71,14.74-11.81,0-10.55-18.92-10.44-18.92-18.25Z"/>
    <path class="cls-2" d="M198.82,80.64c-8.47,0-13.97-7.48-13.97-15.86s5.28-14.03,12.87-14.03c3.63,0,7.15,1.25,10.18,3.25v-6.56c-3.25-.8-6.66-1.43-10.01-1.43-11.28,0-19.31,7.82-19.31,19.62s8.03,19.74,21.01,19.74c2.86,0,5.72-.45,8.3-1.71l2.81-6.61h-.17c-3.46,2.05-7.59,3.59-11.71,3.59Z"/>
    <path class="cls-2" d="M230.54,45.96c-11.55-.29-20.62,8.78-20.62,19.62,0,11.7,9.19,19.8,20.08,19.8s20.24-8.44,20.24-20.08c0-10.26-8.13-19.39-19.69-19.33ZM230.27,81.26c-8.63,0-14.08-8.21-14.08-16.2,0-8.61,5.45-15,13.98-15s13.8,8.04,13.8,16.37-5.34,14.83-13.69,14.83Z"/>
    <path class="cls-2" d="M278.48,47.09c2.92,1.71,2.86,4,2.86,7.19v21.62l-20.13-26.35-.77-1.14c-.38-.46-.61-.74-.82-1.43v-.05h-8.03v.17c2.86,1.71,2.86,4,2.86,7.19v22.76c0,3.19,0,5.47-2.91,7.24v.17h9.74v-.17c-2.92-1.77-2.86-4.05-2.86-7.24v-22.07l18.87,24.81c2.42,3.25,4.12,5.14,8.03,6.51v-32c0-3.19,0-5.48,2.86-7.19v-.17h-9.68v.17Z"/>
    <path class="cls-2" d="M296.21,55.31c0-3.93,3.96-5.19,7.1-5.19s6.49,1.31,8.63,3.59v-6.45c-2.64-.86-5.44-1.26-8.2-1.26-6.7,0-13.8,2.74-13.8,9.93,0,12.09,18.92,10.5,18.92,19.39,0,3.99-4.73,5.93-7.87,5.93-4.29,0-8.79-1.82-12.04-4.73l1.6,7.13c3.14,1.2,6.5,1.71,9.85,1.71,8.58,0,14.74-5.71,14.74-11.81,0-10.55-18.92-10.44-18.92-18.25Z"/>
    <path class="cls-2" d="M317.21,47.09c2.8,1.09,2.42,5.25,2.42,7.87v21.5c0,2.56.33,6.79-2.42,7.82v.17h10.45v-.17c-2.75-1.09-2.42-5.25-2.42-7.82v-21.5c0-2.57-.33-6.79,2.42-7.87v-.17h-10.45v.17Z"/>
    <path class="cls-2" d="M357.32,46.93v.17c2.92,1.71,2.86,4,2.86,7.19v21.62l-20.13-26.35-.77-1.14c-.38-.46-.6-.74-.82-1.43v-.05h-8.03v.17c2.86,1.71,2.86,4,2.86,7.19v22.76c0,3.19,0,5.47-2.91,7.24v.17h9.74v-.17c-2.92-1.77-2.86-4.05-2.86-7.24v-22.07l18.86,24.81c2.42,3.25,4.13,5.14,8.03,6.51v-32c0-3.19,0-5.48,2.86-7.19v-.17h-9.68Z"/>
  </g>
  <g>
    <path class="cls-1" d="M99.26,100.68c.4,0,.76-.07,1.08-.2.32-.14.58-.33.8-.57.22-.24.39-.54.5-.88.12-.34.17-.71.17-1.12v-6.08h1.48v6.08c0,.59-.09,1.13-.28,1.63-.19.5-.46.93-.8,1.29-.35.36-.77.65-1.27.85-.5.21-1.06.31-1.69.31s-1.19-.1-1.69-.31c-.5-.21-.92-.49-1.27-.85-.35-.36-.62-.79-.81-1.29-.19-.5-.28-1.04-.28-1.63v-6.08h1.49v6.08c0,.41.06.79.17,1.13s.28.63.5.88c.22.25.49.44.8.57.32.13.68.2,1.08.2Z"/>
    <path class="cls-1" d="M114.24,91.82v10.05h-.76c-.12,0-.21-.02-.29-.06-.08-.04-.16-.11-.24-.2l-5.68-7.34c0,.13.02.25.02.37,0,.12.01.24.01.34v6.89h-1.31v-10.05h.77c.13,0,.23.02.29.05s.14.1.22.21l5.69,7.35c-.01-.13-.02-.27-.03-.4,0-.13-.01-.25-.01-.36v-6.85h1.3Z"/>
    <path class="cls-1" d="M118.62,101.87h-1.5v-10.05h1.5v10.05Z"/>
    <path class="cls-1" d="M129.78,91.82l-4.09,10.05h-1.34l-4.09-10.05h1.19c.13,0,.24.03.32.1.08.07.14.15.19.25l2.72,6.83c.07.17.13.35.19.55.06.2.12.41.17.63.05-.22.1-.43.15-.63.06-.2.12-.39.18-.55l2.71-6.83c.03-.09.09-.17.18-.24.09-.07.19-.11.32-.11h1.2Z"/>
    <path class="cls-1" d="M137.65,100.66v1.21h-6.24v-10.05h6.23v1.21h-4.73v3.19h3.81v1.17h-3.81v3.28h4.74Z"/>
    <path class="cls-1" d="M147.42,101.87h-1.33c-.27,0-.46-.1-.58-.31l-2.49-3.49c-.08-.12-.17-.2-.26-.25-.09-.05-.23-.07-.42-.07h-.97v4.12h-1.49v-10.05h2.9c.65,0,1.21.07,1.68.2s.86.32,1.16.57.53.54.68.89c.15.34.22.73.22,1.16,0,.35-.05.68-.16.99-.11.31-.26.58-.47.83-.21.25-.46.46-.76.63-.3.18-.64.31-1.02.41.19.11.35.27.48.47l2.83,3.91ZM142.73,96.66c.38,0,.72-.05,1.01-.14.29-.09.54-.23.73-.4s.34-.37.44-.61c.1-.24.15-.5.15-.78,0-.58-.19-1.01-.57-1.31-.38-.29-.95-.44-1.71-.44h-1.41v3.67h1.36Z"/>
    <path class="cls-1" d="M154.34,93.46c-.05.08-.1.14-.15.18-.05.04-.12.06-.2.06-.08,0-.18-.04-.29-.12-.11-.08-.24-.16-.4-.26s-.35-.18-.58-.26c-.22-.08-.49-.12-.8-.12-.29,0-.55.04-.77.12-.22.08-.41.18-.56.32s-.26.29-.34.47-.12.37-.12.58c0,.27.07.5.21.67.14.18.32.33.54.46.22.13.48.24.76.33.28.09.58.19.88.29s.59.22.88.35c.28.13.54.29.76.49.22.2.41.44.54.73.14.29.21.64.21,1.05,0,.44-.08.86-.23,1.25-.15.39-.37.73-.66,1.02-.29.29-.65.52-1.07.68-.42.17-.9.25-1.44.25-.32,0-.63-.03-.94-.09-.3-.06-.59-.15-.86-.27-.27-.11-.52-.25-.76-.41s-.45-.34-.63-.54l.43-.71c.04-.06.09-.1.15-.14.06-.04.12-.06.2-.06.1,0,.21.05.34.15.13.1.29.22.48.34.19.12.42.24.68.34.26.1.58.15.96.15.31,0,.58-.04.83-.12.24-.08.45-.2.61-.35.17-.15.29-.33.38-.55.09-.21.13-.45.13-.71,0-.29-.07-.54-.2-.72-.14-.19-.32-.34-.54-.47s-.48-.23-.76-.32c-.29-.09-.58-.18-.88-.28-.3-.1-.59-.21-.88-.33-.29-.13-.54-.29-.76-.49-.22-.2-.4-.46-.54-.76-.13-.31-.2-.68-.2-1.13,0-.36.07-.71.21-1.04.14-.34.34-.63.61-.89.27-.26.6-.47.99-.62.39-.16.84-.23,1.34-.23.56,0,1.08.09,1.56.27s.89.44,1.24.77l-.36.71Z"/>
    <path class="cls-1" d="M158.6,101.87h-1.5v-10.05h1.5v10.05Z"/>
    <path class="cls-1" d="M168.22,93.07h-3.19v8.81h-1.48v-8.81h-3.21v-1.25h7.88v1.25Z"/>
    <path class="cls-1" d="M174.32,97.9v3.98h-1.48v-3.98l-3.68-6.08h1.31c.13,0,.24.03.32.09.08.06.14.15.2.25l2.18,3.76c.09.17.17.34.24.49.07.15.14.31.19.46.05-.15.11-.3.18-.46.07-.15.15-.32.23-.49l2.18-3.76c.05-.08.11-.16.19-.23.08-.07.19-.11.31-.11h1.32l-3.68,6.08Z"/>
    <path class="cls-1" d="M192.77,96.85c0,.75-.12,1.44-.36,2.07s-.58,1.17-1.02,1.62-.96.81-1.57,1.06c-.61.25-1.29.38-2.04.38s-1.42-.13-2.03-.38c-.61-.25-1.14-.61-1.57-1.06-.44-.46-.78-1-1.02-1.62-.24-.63-.36-1.32-.36-2.07s.12-1.44.36-2.07c.24-.63.58-1.17,1.02-1.63.44-.46.96-.81,1.57-1.06.61-.25,1.29-.38,2.03-.38s1.42.13,2.04.38c.61.25,1.14.61,1.57,1.06.44.45.78,1,1.02,1.63s.36,1.32.36,2.07ZM191.24,96.85c0-.6-.08-1.13-.25-1.61s-.4-.88-.7-1.21c-.3-.33-.67-.59-1.09-.76-.43-.18-.9-.27-1.43-.27s-1,.09-1.43.27c-.43.18-.79.43-1.1.76s-.54.74-.7,1.21-.25,1.01-.25,1.61.08,1.14.25,1.61.4.88.7,1.21c.3.33.67.58,1.1.76s.9.26,1.43.26,1-.09,1.43-.26c.43-.17.79-.43,1.09-.76.3-.33.53-.73.7-1.21s.25-1.01.25-1.61Z"/>
    <path class="cls-1" d="M196.46,93.03v3.37h4.03v1.21h-4.03v4.26h-1.5v-10.05h6.23v1.21h-4.73Z"/>
    <path class="cls-1" d="M220.32,91.82l-3.14,10.05h-1.34l-2.45-7.46c-.06-.15-.1-.33-.15-.54-.05.21-.1.39-.15.54l-2.48,7.46h-1.34l-3.14-10.05h1.25c.13,0,.24.03.33.09.09.06.15.15.18.25l1.98,6.73c.04.13.07.27.1.43s.06.32.09.48c.03-.17.07-.33.1-.48s.08-.3.12-.43l2.27-6.73c.03-.09.09-.17.18-.24.09-.07.2-.11.33-.11h.43c.13,0,.24.03.32.1s.14.15.18.25l2.26,6.73c.08.26.16.55.22.88.06-.32.12-.61.18-.88l1.99-6.73c.02-.09.08-.17.17-.24.09-.07.2-.11.33-.11h1.16Z"/>
    <path class="cls-1" d="M223.54,101.87h-1.5v-10.05h1.5v10.05Z"/>
    <path class="cls-1" d="M231.53,93.46c-.05.08-.1.14-.15.18-.05.04-.12.06-.2.06-.08,0-.18-.04-.29-.12-.11-.08-.24-.16-.4-.26s-.35-.18-.58-.26c-.22-.08-.49-.12-.8-.12-.29,0-.55.04-.77.12-.22.08-.41.18-.56.32s-.26.29-.34.47-.12.37-.12.58c0,.27.07.5.21.67.14.18.32.33.54.46.22.13.48.24.76.33.28.09.58.19.88.29s.59.22.88.35c.28.13.54.29.76.49.22.2.41.44.54.73.14.29.21.64.21,1.05,0,.44-.08.86-.23,1.25-.15.39-.37.73-.66,1.02-.29.29-.65.52-1.07.68-.42.17-.9.25-1.44.25-.32,0-.63-.03-.94-.09-.3-.06-.59-.15-.86-.27-.27-.11-.52-.25-.76-.41s-.45-.34-.63-.54l.43-.71c.04-.06.09-.1.15-.14.06-.04.12-.06.2-.06.1,0,.21.05.34.15.13.1.29.22.48.34.19.12.42.24.68.34.26.1.58.15.96.15.31,0,.58-.04.83-.12.24-.08.45-.2.61-.35.17-.15.29-.33.38-.55.09-.21.13-.45.13-.71,0-.29-.07-.54-.2-.72-.14-.19-.32-.34-.54-.47s-.48-.23-.76-.32c-.29-.09-.58-.18-.88-.28-.3-.1-.59-.21-.88-.33-.29-.13-.54-.29-.76-.49-.22-.2-.4-.46-.54-.76-.13-.31-.2-.68-.2-1.13,0-.36.07-.71.21-1.04.14-.34.34-.63.61-.89.27-.26.6-.47.99-.62.39-.16.84-.23,1.34-.23.56,0,1.08.09,1.56.27s.89.44,1.24.77l-.36.71Z"/>
    <path class="cls-1" d="M241.29,99.72c.08,0,.16.03.22.1l.59.64c-.41.49-.91.86-1.5,1.13-.59.27-1.3.4-2.13.4-.73,0-1.39-.13-1.98-.38-.59-.25-1.09-.6-1.51-1.06-.42-.45-.74-.99-.97-1.62-.23-.63-.34-1.32-.34-2.08s.12-1.45.36-2.08.58-1.17,1.01-1.62c.43-.45.95-.81,1.56-1.06s1.27-.38,2.01-.38,1.35.12,1.9.35,1.04.54,1.45.93l-.49.69c-.03.05-.07.09-.12.13-.05.03-.11.05-.19.05-.09,0-.19-.04-.31-.13s-.28-.19-.47-.3c-.19-.11-.43-.21-.72-.3-.29-.09-.64-.13-1.06-.13-.5,0-.96.09-1.37.26-.42.17-.77.43-1.07.76s-.53.73-.7,1.21c-.17.48-.25,1.02-.25,1.62s.09,1.15.26,1.63c.17.48.41.88.71,1.21s.66.58,1.07.76c.41.17.85.26,1.33.26.29,0,.55-.02.78-.05.23-.03.44-.09.64-.16s.38-.16.55-.27c.17-.11.34-.24.51-.4.04-.03.08-.06.12-.08.04-.02.09-.03.13-.03Z"/>
    <path class="cls-1" d="M253.07,96.85c0,.75-.12,1.44-.36,2.07s-.58,1.17-1.02,1.62-.96.81-1.57,1.06c-.61.25-1.29.38-2.04.38s-1.42-.13-2.03-.38c-.61-.25-1.14-.61-1.57-1.06-.44-.46-.78-1-1.02-1.62-.24-.63-.36-1.32-.36-2.07s.12-1.44.36-2.07c.24-.63.58-1.17,1.02-1.63.44-.46.96-.81,1.57-1.06.61-.25,1.29-.38,2.03-.38s1.42.13,2.04.38c.61.25,1.14.61,1.57,1.06.44.45.78,1,1.02,1.63s.36,1.32.36,2.07ZM251.54,96.85c0-.6-.08-1.13-.25-1.61s-.4-.88-.7-1.21c-.3-.33-.67-.59-1.09-.76-.43-.18-.9-.27-1.43-.27s-1,.09-1.43.27c-.43.18-.79.43-1.1.76s-.54.74-.7,1.21-.25,1.01-.25,1.61.08,1.14.25,1.61.4.88.7,1.21c.3.33.67.58,1.1.76s.9.26,1.43.26,1-.09,1.43-.26c.43-.17.79-.43,1.09-.76.3-.33.53-.73.7-1.21s.25-1.01.25-1.61Z"/>
    <path class="cls-1" d="M263.45,91.82v10.05h-.76c-.12,0-.21-.02-.29-.06-.08-.04-.16-.11-.24-.2l-5.68-7.34c0,.13.02.25.02.37,0,.12.01.24.01.34v6.89h-1.31v-10.05h.77c.13,0,.23.02.29.05s.14.1.22.21l5.69,7.35c-.01-.13-.02-.27-.03-.4,0-.13-.01-.25-.01-.36v-6.85h1.3Z"/>
    <path class="cls-1" d="M271.45,93.46c-.05.08-.1.14-.15.18-.05.04-.12.06-.2.06-.08,0-.18-.04-.29-.12-.11-.08-.24-.16-.4-.26s-.35-.18-.58-.26c-.22-.08-.49-.12-.8-.12-.29,0-.55.04-.77.12-.22.08-.41.18-.56.32s-.26.29-.34.47-.12.37-.12.58c0,.27.07.5.21.67.14.18.32.33.54.46.22.13.48.24.76.33.28.09.58.19.88.29s.59.22.88.35c.28.13.54.29.76.49.22.2.41.44.54.73.14.29.21.64.21,1.05,0,.44-.08.86-.23,1.25-.15.39-.37.73-.66,1.02-.29.29-.65.52-1.07.68-.42.17-.9.25-1.44.25-.32,0-.63-.03-.94-.09-.3-.06-.59-.15-.86-.27-.27-.11-.52-.25-.76-.41s-.45-.34-.63-.54l.43-.71c.04-.06.09-.1.15-.14.06-.04.12-.06.2-.06.1,0,.21.05.34.15.13.1.29.22.48.34.19.12.42.24.68.34.26.1.58.15.96.15.31,0,.58-.04.83-.12.24-.08.45-.2.61-.35.17-.15.29-.33.38-.55.09-.21.13-.45.13-.71,0-.29-.07-.54-.2-.72-.14-.19-.32-.34-.54-.47s-.48-.23-.76-.32c-.29-.09-.58-.18-.88-.28-.3-.1-.59-.21-.88-.33-.29-.13-.54-.29-.76-.49-.22-.2-.4-.46-.54-.76-.13-.31-.2-.68-.2-1.13,0-.36.07-.71.21-1.04.14-.34.34-.63.61-.89.27-.26.6-.47.99-.62.39-.16.84-.23,1.34-.23.56,0,1.08.09,1.56.27s.89.44,1.24.77l-.36.71Z"/>
    <path class="cls-1" d="M275.72,101.87h-1.5v-10.05h1.5v10.05Z"/>
    <path class="cls-1" d="M286.82,91.82v10.05h-.76c-.12,0-.21-.02-.29-.06-.08-.04-.16-.11-.24-.2l-5.68-7.34c0,.13.02.25.02.37,0,.12.01.24.01.34v6.89h-1.31v-10.05h.77c.13,0,.23.02.29.05s.14.1.22.21l5.69,7.35c-.01-.13-.02-.27-.03-.4,0-.13-.01-.25-.01-.36v-6.85h1.3Z"/>
    <path class="cls-1" d="M289.39,96.58h5.61v.99h-5.61v-.99Z"/>
    <path class="cls-1" d="M308.14,91.82v10.05h-1.3v-7.15c0-.11,0-.22.01-.34,0-.12.01-.25.02-.37l-3.35,6.14c-.12.23-.3.34-.54.34h-.21c-.24,0-.42-.11-.53-.34l-3.41-6.16c.03.26.04.51.04.74v7.15h-1.31v-10.05h1.11c.13,0,.23.01.3.04.07.03.14.1.21.21l3.36,6.02c.07.12.13.25.18.38.06.13.11.27.16.41.1-.28.21-.54.34-.8l3.3-6.01c.06-.12.13-.19.2-.21.07-.03.17-.04.3-.04h1.11Z"/>
    <path class="cls-1" d="M319.29,101.87h-1.15c-.13,0-.24-.03-.32-.1s-.14-.15-.18-.25l-.89-2.33h-4.43l-.89,2.33c-.03.09-.09.17-.18.24-.09.07-.2.11-.32.11h-1.15l4-10.05h1.5l4,10.05ZM316.35,98.13l-1.49-3.9c-.11-.27-.21-.6-.32-1.01-.05.2-.1.39-.16.56s-.11.33-.16.46l-1.48,3.88h3.61Z"/>
    <path class="cls-1" d="M329.71,96.85c0,.75-.12,1.43-.36,2.05s-.58,1.14-1.02,1.58c-.44.44-.96.78-1.58,1.03-.61.24-1.29.36-2.04.36h-3.78v-10.05h3.78c.75,0,1.43.12,2.04.36.61.24,1.14.58,1.58,1.03.44.44.78.97,1.02,1.59s.36,1.3.36,2.05ZM328.18,96.85c0-.6-.08-1.13-.25-1.61-.16-.47-.4-.88-.7-1.2-.3-.33-.67-.58-1.09-.75s-.9-.26-1.43-.26h-2.28v7.64h2.28c.53,0,1-.09,1.43-.26s.79-.42,1.09-.75c.3-.33.53-.73.7-1.2.16-.47.25-1.01.25-1.61Z"/>
    <path class="cls-1" d="M333.52,101.87h-1.5v-10.05h1.5v10.05Z"/>
    <path class="cls-1" d="M341.51,93.46c-.05.08-.1.14-.15.18-.05.04-.12.06-.2.06-.08,0-.18-.04-.29-.12-.11-.08-.24-.16-.4-.26s-.35-.18-.58-.26c-.22-.08-.49-.12-.8-.12-.29,0-.55.04-.77.12-.22.08-.41.18-.56.32s-.26.29-.34.47-.12.37-.12.58c0,.27.07.5.21.67.14.18.32.33.54.46.22.13.48.24.76.33.28.09.58.19.88.29s.59.22.88.35c.28.13.54.29.76.49.22.2.41.44.54.73.14.29.21.64.21,1.05,0,.44-.08.86-.23,1.25-.15.39-.37.73-.66,1.02-.29.29-.65.52-1.07.68-.42.17-.9.25-1.44.25-.32,0-.63-.03-.94-.09-.3-.06-.59-.15-.86-.27-.27-.11-.52-.25-.76-.41s-.45-.34-.63-.54l.43-.71c.04-.06.09-.1.15-.14.06-.04.12-.06.2-.06.1,0,.21.05.34.15.13.1.29.22.48.34.19.12.42.24.68.34.26.1.58.15.96.15.31,0,.58-.04.83-.12.24-.08.45-.2.61-.35.17-.15.29-.33.38-.55.09-.21.13-.45.13-.71,0-.29-.07-.54-.2-.72-.14-.19-.32-.34-.54-.47s-.48-.23-.76-.32c-.29-.09-.58-.18-.88-.28-.3-.1-.59-.21-.88-.33-.29-.13-.54-.29-.76-.49-.22-.2-.4-.46-.54-.76-.13-.31-.2-.68-.2-1.13,0-.36.07-.71.21-1.04.14-.34.34-.63.61-.89.27-.26.6-.47.99-.62.39-.16.84-.23,1.34-.23.56,0,1.08.09,1.56.27s.89.44,1.24.77l-.36.71Z"/>
    <path class="cls-1" d="M353.61,96.85c0,.75-.12,1.44-.36,2.07s-.58,1.17-1.02,1.62-.96.81-1.57,1.06c-.61.25-1.29.38-2.04.38s-1.42-.13-2.03-.38c-.61-.25-1.14-.61-1.57-1.06-.44-.46-.78-1-1.02-1.62-.24-.63-.36-1.32-.36-2.07s.12-1.44.36-2.07c.24-.63.58-1.17,1.02-1.63.44-.46.96-.81,1.57-1.06.61-.25,1.29-.38,2.03-.38s1.42.13,2.04.38c.61.25,1.14.61,1.57,1.06.44.45.78,1,1.02,1.63s.36,1.32.36,2.07ZM352.09,96.85c0-.6-.08-1.13-.25-1.61s-.4-.88-.7-1.21c-.3-.33-.67-.59-1.09-.76-.43-.18-.9-.27-1.43-.27s-1,.09-1.43.27c-.43.18-.79.43-1.1.76s-.54.74-.7,1.21-.25,1.01-.25,1.61.08,1.14.25,1.61.4.88.7,1.21c.3.33.67.58,1.1.76s.9.26,1.43.26,1-.09,1.43-.26c.43-.17.79-.43,1.09-.76.3-.33.53-.73.7-1.21s.25-1.01.25-1.61Z"/>
    <path class="cls-1" d="M364.04,91.82v10.05h-.76c-.12,0-.21-.02-.29-.06-.08-.04-.16-.11-.24-.2l-5.68-7.34c0,.13.02.25.02.37,0,.12.01.24.01.34v6.89h-1.31v-10.05h.77c.13,0,.23.02.29.05s.14.1.22.21l5.69,7.35c-.01-.13-.02-.27-.03-.4,0-.13-.01-.25-.01-.36v-6.85h1.3Z"/>
  </g>
  <g>
    <path class="cls-3" d="M39.3,123.2c-.23-.06-.91-.77-1.49-1.64l-.09-.13-.15-.04C11.9,115.41-2.4,76.01.82,44.39c.37-3.65.98-7.09,1.82-10.27.86-3.26,1.96-6.3,3.29-9.05,1.48-3.07,3.27-5.76,5.32-8,4.26-4.67,9.53-7.18,15.24-7.26.13,0,.5-.01.53-.36,1-2.03,3.57-3.46,5.49-3.72l.27-.04.07-.26c.05-.21,1.28-5.03,6.46-5.03s6.44,4.96,6.46,5.01l.06.26.27.04c1.92.27,4.48,1.71,5.48,3.74.03.35.4.36.53.36,5.71.08,10.98,2.59,15.25,7.26,2.34,2.54,4.37,5.74,6.01,9.5l.33.78c2.07,4.96,3.44,10.69,4.09,17.04,3.22,31.62-11.08,71.02-36.74,77l-.15.04-.09.13c-.59.88-1.26,1.58-1.49,1.64Z"/>
    <path class="cls-1" d="M78.14,44.35c-.27-2.61-.66-5.22-1.22-7.79-.51-2.36-1.16-4.7-1.97-6.98-.86-2.4-1.89-4.76-3.15-6.97-1.18-2.08-2.57-4.04-4.19-5.81-4.31-4.72-9.63-7.32-15.52-7.4h-.13c-.96-2.1-3.6-3.8-5.89-4.12,0,0-1.23-5.26-6.77-5.28-5.53.03-6.77,5.28-6.77,5.28-2.29.32-4.93,2.02-5.89,4.12h-.13c-5.9.08-11.22,2.68-15.52,7.4-1.62,1.77-3,3.73-4.19,5.81-1.26,2.22-2.29,4.57-3.15,6.97-.81,2.28-1.46,4.61-1.97,6.98-.56,2.57-.96,5.17-1.22,7.79-3.26,32.03,11.14,71.39,37.05,77.43.39.59,1.3,1.81,1.79,1.81.5,0,1.4-1.22,1.79-1.81,25.91-6.04,40.31-45.4,37.05-77.43ZM39.3,1.24c4.55,0,5.55,3.87,5.56,3.91-2.26.15-4.37,1.52-5.46,3.5-.02.03-.06.13-.1.13-.05,0-.08-.1-.1-.13-1.09-1.97-3.2-3.34-5.46-3.5,0-.04,1.01-3.91,5.56-3.91ZM36.66,7.31c1.09.67,1.95,1.74,2.26,2.98.09.37.23.59.38.59s.29-.22.38-.59c.31-1.25,1.16-2.31,2.26-2.98,3.3-2.04,7.05-.69,8.55,2.24-.77.13-1.44.32-2.36.59-1.33.46-2.43,1.02-3.37,1.87-2.1,1.91-3.96,4.87-4.31,8.63-.94,10.36,10.93,8.73,11.53,8.68,1.53,0,2.69-2.42,2.69-5.62s-1.19-5.62-2.69-5.62c-.92,0-2.51.74-2.66,3.61-.1,2.02.88,4.7,2.16,4.86.66.09,1.27-1.08,1.45-2.27.17-1.03.08-2.65-.84-2.88-.29-.07-.58.1-.66.4-.07.26.57.71.55,1.9-.04,1.77-1.82.89-1.58-1.93.21-2.5,1.49-2.34,1.54-2.34.71,0,1.79,1.49,1.79,4.27,0,2.47-1.2,5.14-3.48,3.75-1.92-1.41-2.68-4.64-2.15-7.15.24-1.15,1.23-4.28,4.43-4.28,4.62,0,8.92,2.42,12.35,6.94-.38,1.21-2.75,5.81-10.31,10.21-.16.08-.4.22-.41.21-2.31-.94-4.47-1.52-6.99-1.38-2.23.13-4.4.53-6.57,1.04-.43.1-.86.21-1.3.21h0c-.44,0-.88-.11-1.3-.21-2.17-.51-4.34-.92-6.57-1.04-2.52-.14-4.68.44-6.99,1.38-.01,0-.25-.13-.41-.21-7.56-4.4-9.94-9-10.31-10.21,3.43-4.51,7.73-6.94,12.35-6.94,3.2,0,4.19,3.13,4.43,4.28.53,2.5-.23,5.74-2.15,7.15-2.28,1.39-3.48-1.27-3.48-3.75,0-2.78,1.07-4.27,1.79-4.27.05,0,1.33-.16,1.54,2.34.24,2.81-1.54,3.7-1.58,1.93-.02-1.19.61-1.64.55-1.9-.07-.29-.37-.47-.66-.4-.92.23-1.01,1.85-.84,2.88.19,1.18.79,2.35,1.45,2.27,1.27-.17,2.26-2.85,2.16-4.86-.15-2.87-1.74-3.61-2.66-3.61-1.5,0-2.69,2.42-2.69,5.62s1.16,5.62,2.69,5.62c.6.05,12.48,1.68,11.53-8.68-.34-3.77-2.21-6.72-4.31-8.63-.94-.85-2.03-1.41-3.37-1.87-.92-.28-1.6-.46-2.36-.59,1.5-2.93,5.25-4.28,8.55-2.24ZM14.2,50.72c-.29,1.98-.41,3.65-.45,4.68-.15,3.73.03,7.5.55,11.22.49,3.52,1.28,7,2.35,10.37,1.47,4.6,3.48,9,5.85,13.2-2.42,2.21-6.06,3.07-7.28,3.31-6.56-13.05-9.9-29.88-9.16-45.06,1.54.78,4.42,1.95,8.14,2.28ZM6.11,47.61c.62-10.36,3.25-18.48,7.06-23.89.68,1.76,3.64,6.16,10.47,10.17-5.81,3.49-8.43,10.71-9.31,16.09-3.86-.34-6.82-1.63-8.21-2.36ZM22.89,90.87c4.35,7.51,8.67,11.99,11.96,14.35-1.19,3.02-4.02,5.4-5.01,6.17-5.68-3.82-10.48-9.87-14.26-17.18,1.45-.3,4.87-1.19,7.31-3.34ZM35.51,105.68c1.76,1.28,3.55,2.01,3.79,2.08.23-.07,2.03-.8,3.79-2.08,1.24,2.94,3.83,5.22,5,6.15-1.62,1.03-3.31,1.88-5.07,2.52-.01-.06-.02-.12-.03-.19-.36-1.87-2.8-2.25-3.7-2.25-.89,0-3.33.38-3.7,2.25-.01.06-.02.12-.03.19-1.76-.64-3.44-1.5-5.07-2.52,1.18-.93,3.76-3.21,5-6.15ZM43.74,105.22c3.29-2.36,7.61-6.84,11.96-14.35,2.44,2.15,5.86,3.04,7.31,3.34-3.78,7.31-8.58,13.36-14.26,17.18-.99-.77-3.82-3.14-5.01-6.17ZM56.09,90.19c2.38-4.19,4.39-8.6,5.85-13.2,1.07-3.37,1.86-6.85,2.35-10.37.52-3.72.7-7.49.55-11.22-.04-1.04-.16-2.7-.45-4.68,3.73-.33,6.6-1.5,8.14-2.28.74,15.18-2.6,32.02-9.16,45.06-1.23-.24-4.86-1.11-7.28-3.31ZM64.28,49.97c-.88-5.38-3.55-12.46-9.31-16.09,6.83-4.01,9.79-8.41,10.47-10.17,3.81,5.41,6.44,13.54,7.06,23.89-1.39.73-4.36,2.02-8.21,2.36ZM35.08,119.51c-2.94-.97-5.74-2.39-8.31-4.15-1.63-1.12-3.17-2.37-4.6-3.71-1.17-1.1-2.28-2.27-3.33-3.5-.71-.83-1.4-1.69-2.06-2.57-3.18-4.2-5.79-8.89-7.89-13.72-2.03-4.66-3.63-9.51-4.85-14.44-1.24-5.04-2.09-10.19-2.54-15.36-.44-5.09-.52-10.25-.1-15.35.23-2.74.55-5.47,1.05-8.17.49-2.69,1.14-5.35,2.02-7.94.81-2.37,1.78-4.69,2.98-6.89,1.23-2.25,2.69-4.42,4.46-6.28,1.65-1.73,3.51-3.25,5.61-4.39.88-.48,1.79-.89,2.74-1.23.48-.17.96-.33,1.45-.46.45-.12,1.01-.31,1.46-.37,1.19-.22,2.41-.3,3.63-.3.99,0,3.39.16,5.5,1.48,2.33,1.65,4.36,4.39,4.72,8.56.56,6.39-5.96,7.4-7.24,7.39-.2,0-.3-.19.34-.84,1.5-1.92,1.99-4.86,1.48-7.23-.62-2.94-2.69-5.23-5.69-5.22-4.49,0-8.51,2.26-11.49,5.51-2.91,3.17-4.9,7.11-6.33,11.14-1.83,5.18-2.75,10.64-3.12,16.11-.34,5.02-.2,10.07.32,15.07.53,5.06,1.45,10.09,2.76,15,1.27,4.78,2.92,9.46,4.99,13.95,2.09,4.51,4.63,8.88,7.76,12.78,3.15,3.91,7.03,7.43,11.52,9.73,1.01.52,2.05.98,3.13,1.36-.06,1.67.37,3.16.94,4.39-.71-.16-.73-.19-1.32-.39ZM39.74,121.7s-.22.27-.44.3c-.22-.03-.42-.28-.44-.3-1.11-1.39-2.76-4.1-2.14-7.32.18-.91,1.7-1.32,2.58-1.33.88,0,2.41.42,2.58,1.33.62,3.23-1.03,5.93-2.14,7.32ZM77.1,62.07c-.44,5.17-1.29,10.32-2.54,15.36-1.22,4.93-2.82,9.78-4.85,14.44-2.1,4.82-4.72,9.52-7.89,13.72-.66.87-1.35,1.73-2.06,2.57-1.05,1.22-2.16,2.39-3.33,3.5-1.43,1.34-2.97,2.59-4.6,3.71-2.57,1.76-5.37,3.18-8.31,4.15-.6.2-.61.23-1.32.39.58-1.23,1-2.72.94-4.39,1.07-.38,2.11-.84,3.13-1.36,4.49-2.3,8.37-5.83,11.52-9.73,3.14-3.89,5.67-8.27,7.76-12.78,2.08-4.49,3.72-9.18,4.99-13.95,1.31-4.92,2.23-9.94,2.76-15,.52-5,.66-10.05.32-15.07-.37-5.47-1.29-10.93-3.12-16.11-1.42-4.03-3.42-7.97-6.33-11.14-2.99-3.25-7-5.51-11.49-5.51-3,0-5.07,2.29-5.69,5.22-.5,2.36-.01,5.3,1.48,7.23.63.66.53.84.34.84-1.28.01-7.8-1-7.24-7.39.36-4.17,2.4-6.91,4.72-8.56,2.11-1.33,4.51-1.48,5.5-1.48,1.22,0,2.43.07,3.63.3.48.07,1.02.24,1.46.37.49.13.98.29,1.45.46.94.34,1.86.75,2.74,1.23,2.11,1.15,3.96,2.66,5.61,4.39,1.77,1.86,3.23,4.03,4.46,6.28,1.2,2.2,2.17,4.52,2.98,6.89.88,2.59,1.53,5.25,2.02,7.94.49,2.7.82,5.43,1.05,8.17.42,5.1.34,10.25-.1,15.35Z"/>
    <path class="cls-2" d="M63.44,55.61c-.16-3.81-1.27-15.43-9.18-20.47-1.71-1.09-3.95-1.57-6.21-1.71-3.88-.25-6.76,1.23-8.7,1.29h-.1c-1.94-.05-4.84-1.54-8.72-1.29-2.25.15-4.48.63-6.19,1.71-7.91,5.04-9.02,16.66-9.18,20.47-.57,13.47,3.69,23.98,5.01,26.88,5.47,12.05,12.08,20.57,18.6,23.46l.52.23.53-.23c6.52-2.9,13.13-11.41,18.6-23.46,1.32-2.9,5.58-13.42,5.01-26.88Z"/>
    <path class="cls-4" d="M51.05,46.47v2.63l.53-.08s.11-.01.25-.01c.29,0,.83.05,1.16.39.32.32.42.86.3,1.57-.01.03-5.29,22.93-6.3,27.29-1.16-5.52-7.45-35.65-7.45-35.65l-.03-.13h-1.25l-.02.14s-4.55,29.33-5.46,35.2c-1.19-5.08-6.26-26.83-6.26-26.83-.01-.14-.02-.27-.02-.39,0-.62.15-1.07.44-1.35.39-.37.97-.32,1.02-.31l.52.07v-2.54s-8.83,0-8.83,0v2.49l.39.06c.19.04,1.18.28,1.34,1.18,0,.02,10.34,44.38,10.78,46.26l.03.12h1.55l.02-.13c.05-.31,4.26-27.84,5.04-33,1,5.13,6.36,32.7,6.42,33l.03.13h1.39l10.26-46.41c.24-.96,1.08-1.07,1.44-1.07.05,0,.09,0,.1,0l.51.04v-2.68h-7.9Z"/>
  </g>
</svg>